<svg width="600" height="840" viewBox="0 0 600 840" xmlns="http://www.w3.org/2000/svg">
  <rect x="30" y="6" width="540" height="768" rx="30" ry="30" fill="#dc2626" stroke="#991b1b" stroke-width="4"/>

  <rect x="66" y="30" width="468" height="354" rx="14.4" ry="14.4" fill="#1a1a1a" stroke="#374151" stroke-width="3"/>

  <rect x="96" y="66" width="408" height="282" rx="9.6" ry="9.6" fill="#4ade80" stroke="#22c55e" stroke-width="2"/>

  <circle cx="100" cy="365" r="4.8" fill="#ef4444"/>
  <text x="110" y="369" font-family="Arial, sans-serif" font-size="12" fill="#ffffff" font-weight="bold">POWER</text>

  <text x="96" y="438" font-family="Arial, sans-serif" font-size="21.6" font-weight="bold" fill="#1f2937">GAME BOY</text>

  <text x="300" y="438" font-family="Arial, sans-serif" font-size="21.6" font-weight="bold">
    <tspan fill="#FF6B6B">C</tspan>
    <tspan fill="#FFA726">O</tspan>
    <tspan fill="#FFEE58">L</tspan>
    <tspan fill="#4CD964">O</tspan>
    <tspan fill="#5AC8FA">R</tspan>
  </text>

  <text x="300" y="462" text-anchor="middle" font-family="Arial, sans-serif" font-size="14.4" fill="#4b5563" opacity="0.8">Nintendo</text>

  <g transform="translate(168, 540)">
    <circle cx="0" cy="0" r="42" fill="#374151" stroke="#1f2937" stroke-width="3"/>
    <rect x="-24" y="-8.4" width="48" height="16.8" rx="3.6" ry="3.6" fill="#1f2937"/>
    <rect x="-8.4" y="-24" width="16.8" height="48" rx="3.6" ry="3.6" fill="#1f2937"/>
    <polygon points="-18,0 -12,-4.8 -12,4.8" fill="#6b7280"/>
    <polygon points="18,0 12,-4.8 12,4.8" fill="#6b7280"/>
    <polygon points="0,-18 -4.8,-12 4.8,-12" fill="#6b7280"/>
    <polygon points="0,18 -4.8,12 4.8,12" fill="#6b7280"/>
  </g>

  <g transform="translate(420, 540)">
    <circle cx="-36" cy="9.6" r="30" fill="#374151" stroke="#1f2937" stroke-width="3"/>
    <circle cx="-36" cy="9.6" r="24" fill="#4b5563"/>
    <text x="-36" y="18" text-anchor="middle" font-family="Arial, sans-serif" font-size="19.2" font-weight="bold" fill="#ffffff">B</text>

    <circle cx="36" cy="-18" r="30" fill="#374151" stroke="#1f2937" stroke-width="3"/>
    <circle cx="36" cy="-18" r="24" fill="#4b5563"/>
    <text x="36" y="-9.6" text-anchor="middle" font-family="Arial, sans-serif" font-size="19.2" font-weight="bold" fill="#ffffff">A</text>
  </g>

  <g transform="translate(300, 636)">
    <ellipse cx="-48" cy="0" rx="21.6" ry="9.6" fill="#374151" stroke="#1f2937" stroke-width="2"/>
    <text x="-48" y="3.6" text-anchor="middle" font-family="Arial, sans-serif" font-size="9.6" fill="#ffffff">SELECT</text>

    <ellipse cx="48" cy="0" rx="21.6" ry="9.6" fill="#374151" stroke="#1f2937" stroke-width="2"/>
    <text x="48" y="3.6" text-anchor="middle" font-family="Arial, sans-serif" font-size="9.6" fill="#ffffff">START</text>
  </g>

  <g transform="translate(66, 696)">
    <line x1="0" y1="0" x2="72" y2="0" stroke="#991b1b" stroke-width="1.8"/>
    <line x1="0" y1="7.2" x2="72" y2="7.2" stroke="#991b1b" stroke-width="1.8"/>
    <line x1="0" y1="14.4" x2="72" y2="14.4" stroke="#991b1b" stroke-width="1.8"/>
    <line x1="0" y1="21.6" x2="72" y2="21.6" stroke="#991b1b" stroke-width="1.8"/>
    <line x1="0" y1="28.8" x2="72" y2="28.8" stroke="#991b1b" stroke-width="1.8"/>
    <line x1="0" y1="36" x2="72" y2="36" stroke="#991b1b" stroke-width="1.8"/>
    <line x1="0" y1="0" x2="0" y2="36" stroke="#991b1b" stroke-width="1.8"/>
    <line x1="12" y1="0" x2="12" y2="36" stroke="#991b1b" stroke-width="1.8"/>
    <line x1="24" y1="0" x2="24" y2="36" stroke="#991b1b" stroke-width="1.8"/>
    <line x1="36" y1="0" x2="36" y2="36" stroke="#991b1b" stroke-width="1.8"/>
    <line x1="48" y1="0" x2="48" y2="36" stroke="#991b1b" stroke-width="1.8"/>
    <line x1="60" y1="0" x2="60" y2="36" stroke="#991b1b" stroke-width="1.8"/>
    <line x1="72" y1="0" x2="72" y2="36" stroke="#991b1b" stroke-width="1.8"/>
  </g>

  <rect x="96" y="66" width="96" height="72" rx="9.6" ry="9.6" fill="url(#screenReflection)" opacity="0.2"/>

  <defs>
    <linearGradient id="screenReflection" x1="0%" y1="0%" x2="100%" y2="100%">
      <stop offset="0%" style="stop-color:white;stop-opacity:0.4" />
      <stop offset="100%" style="stop-color:white;stop-opacity:0" />
    </linearGradient>
  </defs>

  <rect x="30" y="6" width="540" height="15" rx="30" ry="30" fill="#b91c1c" opacity="0.6"/>
</svg>